<svg width="51" height="47" viewBox="0 0 51 47" fill="none" xmlns="http://www.w3.org/2000/svg">
<mask id="mask0_113_137" style="mask-type:luminance" maskUnits="userSpaceOnUse" x="0" y="0" width="51" height="47">
<path d="M51 0H0V47H51V0Z" fill="white"/>
</mask>
<g mask="url(#mask0_113_137)">
<path d="M28.1023 8.04948L30.0694 6.26407C33.9322 2.75798 40.221 2.6712 44.1061 6.15708C45.5782 7.48089 46.5565 9.18999 46.9036 11.0443C47.2506 12.8987 46.9488 14.8051 46.0408 16.4958C45.6052 17.3035 45.4585 18.2144 45.6209 19.1014C45.7836 19.9884 46.2472 20.8072 46.9473 21.4434C48.2348 20.2722 49.2551 18.8822 49.9504 17.353C50.6457 15.8237 51.0024 14.185 50.9999 12.5306C50.9971 10.8763 50.6356 9.23852 49.9355 7.71104C49.2354 6.18353 48.2105 4.7962 46.9195 3.6283C41.4869 -1.27476 32.6688 -1.17719 27.2514 3.73964L8.50179 20.7572L6.9604 19.3582C3.03205 15.7926 3.00701 9.96438 7.00466 6.46219C8.48441 5.16984 10.3696 4.32619 12.4002 4.04771C14.4307 3.76924 16.5064 4.06966 18.3407 4.9075C19.178 5.29693 20.1295 5.43624 21.0592 5.30554C21.9889 5.17484 22.8493 4.78082 23.5176 4.17974L23.5654 4.13658C23.5803 4.12317 23.5921 4.10722 23.6001 4.08963C23.6082 4.07207 23.6123 4.05322 23.6123 4.03419C23.6123 4.01516 23.6082 3.99631 23.6001 3.97875C23.5921 3.96119 23.5803 3.94523 23.5654 3.9318C20.9848 1.64835 17.5266 0.365742 13.9226 0.355372C10.3186 0.345004 6.85151 1.60769 4.25499 3.87624C-1.33818 8.77701 -1.3182 16.9265 4.17911 21.9161L22.9232 38.9291L20.9321 40.7363C17.0692 44.2424 10.7802 44.3292 6.89539 40.8433C5.42328 39.5196 4.445 37.8104 4.09795 35.9561C3.75092 34.1018 4.05252 32.1954 4.96043 30.5046C5.39601 29.6969 5.54282 28.786 5.38036 27.8991C5.21787 27.012 4.75421 26.1931 4.05416 25.557C2.76679 26.7283 1.74629 28.1181 1.05094 29.6473C0.355584 31.1768 -0.000982926 32.8152 0.00160086 34.4698C0.00418465 36.1241 0.365868 37.7619 1.066 39.2893C1.76612 40.8169 2.79098 42.2042 4.08199 43.3721C9.51429 48.2754 18.3327 48.178 23.75 43.261L42.524 26.2207L44.0712 27.625C47.934 31.1311 48.0296 36.839 44.189 40.3651C42.7306 41.7015 40.8475 42.5892 38.8045 42.9044C36.7616 43.2194 34.6612 42.9455 32.7983 42.1213C31.9082 41.7258 30.9041 41.5924 29.9265 41.7403C28.9489 41.8879 28.0464 42.3091 27.3455 42.9451C28.636 44.1136 30.1673 45.04 31.8521 45.6711C33.5371 46.3022 35.3424 46.6259 37.1653 46.6236C38.9879 46.621 40.7924 46.2928 42.4751 45.6573C44.1582 45.0218 45.6867 44.0916 46.9734 42.9198C52.3756 37.9892 52.2681 29.9853 46.8509 25.0684L28.1023 8.04948ZM25.7222 36.3875L11.3015 23.2986L25.3023 10.5911L39.7229 23.68L25.7222 36.3875Z" fill="#18CDCA"/>
</g>
</svg>
